<svg width="297" height="337" viewBox="0 0 297 337" xmlns="http://www.w3.org/2000/svg"><g fill="none"><path d="M26.845 303.254l-27.07-303.622h297.45l-27.098 303.573-121.809 33.77-121.473-33.721z" id="Shape" fill="#EFC725"/><path d="M148.25 310.787l98.428-27.287 23.158-259.417h-121.586v286.704z" id="Shape" fill="#FBDE34"/><path d="M148.193 233.426l-.162.047-41.472-11.201-2.653-29.697h-37.379l5.217 58.468 76.277 21.176.172-.049v-38.744zM153.209 173.937v-37.237h-45.854l5.377-58.442 40.58-1.081-.103-38.723h-74.144l-2.754 27.449-8.752 98.035-.908 9.999h86.55799999999999z" id="Shape" fill="#EBEBEB"/><path d="M152.957 77.229l.163-.046 40.671 2.449 3.451 38.447h37.381l-6.514-71.946-74.98-7.696-.172.048v38.744zM230.784 77.343l-3.191-38.889h-78.603v38.889h81.794" id="Shape" fill="#fff"/><path d="M148.064 136.718v37.236h45.854l-4.322 48.293-41.532 11.212v38.742l76.34-21.158.559-6.291 8.752-98.035.908-9.999h-86.559z" fill="#fff"/></g></svg>
