<svg width="297" height="337" viewBox="0 0 297 337" xmlns="http://www.w3.org/2000/svg"><g fill="none"><path d="M27.383 303.266l-27.07-303.62h297.45l-27.098 303.571-121.809 33.769-121.473-33.72z" id="Shape" fill="#E44F26"/><path d="M149.038 311.175l98.427-27.288 23.158-259.416h-121.585v286.704z" id="Shape" fill="#F1662A"/><path d="M149.038 137.08h-49.275l-3.404-38.132h52.679v-37.239h-93.375l.892 9.991 9.152 102.616h83.331v-37.236zM149.038 233.788l-.163.046-41.472-11.199-2.652-29.698h-37.379999999999995l5.217 58.467 76.278 21.176.172-.048v-38.744z" id="Shape" fill="#EBEBEB"/><path d="M148.909 137.08v37.236h45.854l-4.322 48.294-41.532 11.21v38.742l76.34-21.158.559-6.29 8.751-98.035.908-9.999h-86.558zM148.909 61.709v37.239h89.947l.747-8.37 1.696-18.878.891-9.991h-93.281z" fill="#fff"/></g></svg>
