<?xml version="1.0" standalone="no"?>
<!DOCTYPE svg PUBLIC "-//W3C//DTD SVG 20010904//EN"
 "http://www.w3.org/TR/2001/REC-SVG-20010904/DTD/svg10.dtd">
<svg version="1.0" xmlns="http://www.w3.org/2000/svg"
 width="256.000000pt" height="256.000000pt" viewBox="0 0 256.000000 256.000000"
 preserveAspectRatio="xMidYMid meet">
<metadata>
Created by potrace 1.11, written by Peter Selinger 2001-2013
</metadata>
<g transform="translate(0.000000,256.000000) scale(0.100000,-0.100000)"
fill="#000000" stroke="none">
<path d="M74 2535 c-80 -48 -75 47 -72 -1270 l3 -1170 22 -31 c48 -67 -20 -64
1259 -64 1053 0 1158 1 1187 16 42 22 74 60 81 97 3 16 6 547 6 1179 0 1118
-1 1150 -19 1187 -11 21 -32 47 -48 57 -27 18 -67 19 -1203 21 l-1175 3 -41
-25z"/>
</g>
</svg>
