<svg width="297" height="337" viewBox="0 0 297 337" xmlns="http://www.w3.org/2000/svg"><g fill="none"><path d="M27.142 303.29l-27.071-303.62h297.45l-27.096 303.571-121.811 33.77-121.472-33.721z" id="Shape" fill="#1572B6"/><path d="M148.798 311.199l98.427-27.288 23.157-259.415h-121.584v286.703z" id="Shape" fill="#33A9DC"/><g><path d="M148.797 134.496h49.275l3.403-38.132h-52.678v-37.239h93.375l-.893 9.991-9.152 102.616h-83.33v-37.236z" id="Shape" fill="#fff"/><path d="M149.02 231.204l-.163.046-41.472-11.199-2.652-29.698h-37.379000000000005l5.216 58.467 76.278 21.176.172-.048v-38.744z" id="Shape" fill="#EBEBEB"/><path d="M194.907 170.156l-4.484 49.87-41.532 11.21v38.742l76.339-21.158.56-6.29 6.478-72.374h-37.361z" id="Shape" fill="#fff"/><path d="M148.926 59.125v37.239h-89.947l-.747-8.37-1.697-18.878-.89-9.991h93.281zM148.797 134.5v37.238h-40.947l-.746-8.369-1.698-18.878-.89-9.991h44.281z" fill="#EBEBEB"/></g></g></svg>
